<?xml version="1.0" encoding="utf-8"?>
<!-- Generator: Adobe Illustrator 26.0.1, SVG Export Plug-In . SVG Version: 6.00 Build 0)  -->
<svg version="1.1" id="Слой_1" xmlns="http://www.w3.org/2000/svg" xmlns:xlink="http://www.w3.org/1999/xlink" x="0px" y="0px"
	 viewBox="0 0 16 16" style="enable-background:new 0 0 16 16;" xml:space="preserve">
<style type="text/css">
	.st0{fill-rule:evenodd;clip-rule:evenodd;}
</style>
<path class="st0" d="M7,8c0-0.2-0.2-0.5-0.5-0.5H1.4l1.7-1.7c0.1-0.1,0.1-0.5,0-0.6C3,5.1,2.6,5.1,2.5,5.2L0.1,7.6
	C0,7.9,0,8.1,0.1,8.4l2.4,2.4c0.1,0.1,0.5,0.1,0.6,0c0.1-0.1,0.1-0.5,0-0.6L1.4,8.5h5.1C6.8,8.5,7,8.2,7,8z M9.5,8.5h5.1l-1.7,1.7
	c-0.1,0.1-0.1,0.5,0,0.6s0.5,0.1,0.6,0l2.4-2.4c0.1-0.2,0.1-0.5,0-0.7l-2.4-2.4c-0.1-0.1-0.5-0.1-0.6,0c-0.1,0.1-0.1,0.5,0,0.6
	l1.7,1.7H9.5C9.2,7.5,9,7.8,9,8C9,8.2,9.2,8.5,9.5,8.5z"/>
</svg>
